<?xml version='1.0' encoding='UTF-8'?>
<svg width="29mm" height="29mm" version="1.1" viewBox="0 0 29 29" xmlns="http://www.w3.org/2000/svg"><path d="M2,2H3V3H2zM3,2H4V3H3zM4,2H5V3H4zM5,2H6V3H5zM6,2H7V3H6zM7,2H8V3H7zM8,2H9V3H8zM10,2H11V3H10zM12,2H13V3H12zM13,2H14V3H13zM15,2H16V3H15zM18,2H19V3H18zM20,2H21V3H20zM21,2H22V3H21zM22,2H23V3H22zM23,2H24V3H23zM24,2H25V3H24zM25,2H26V3H25zM26,2H27V3H26zM2,3H3V4H2zM8,3H9V4H8zM10,3H11V4H10zM14,3H15V4H14zM16,3H17V4H16zM18,3H19V4H18zM20,3H21V4H20zM26,3H27V4H26zM2,4H3V5H2zM4,4H5V5H4zM5,4H6V5H5zM6,4H7V5H6zM8,4H9V5H8zM12,4H13V5H12zM15,4H16V5H15zM17,4H18V5H17zM18,4H19V5H18zM20,4H21V5H20zM22,4H23V5H22zM23,4H24V5H23zM24,4H25V5H24zM26,4H27V5H26zM2,5H3V6H2zM4,5H5V6H4zM5,5H6V6H5zM6,5H7V6H6zM8,5H9V6H8zM10,5H11V6H10zM15,5H16V6H15zM16,5H17V6H16zM17,5H18V6H17zM18,5H19V6H18zM20,5H21V6H20zM22,5H23V6H22zM23,5H24V6H23zM24,5H25V6H24zM26,5H27V6H26zM2,6H3V7H2zM4,6H5V7H4zM5,6H6V7H5zM6,6H7V7H6zM8,6H9V7H8zM11,6H12V7H11zM15,6H16V7H15zM16,6H17V7H16zM17,6H18V7H17zM18,6H19V7H18zM20,6H21V7H20zM22,6H23V7H22zM23,6H24V7H23zM24,6H25V7H24zM26,6H27V7H26zM2,7H3V8H2zM8,7H9V8H8zM12,7H13V8H12zM13,7H14V8H13zM15,7H16V8H15zM20,7H21V8H20zM26,7H27V8H26zM2,8H3V9H2zM3,8H4V9H3zM4,8H5V9H4zM5,8H6V9H5zM6,8H7V9H6zM7,8H8V9H7zM8,8H9V9H8zM10,8H11V9H10zM12,8H13V9H12zM14,8H15V9H14zM16,8H17V9H16zM18,8H19V9H18zM20,8H21V9H20zM21,8H22V9H21zM22,8H23V9H22zM23,8H24V9H23zM24,8H25V9H24zM25,8H26V9H25zM26,8H27V9H26zM10,9H11V10H10zM11,9H12V10H11zM12,9H13V10H12zM13,9H14V10H13zM14,9H15V10H14zM17,9H18V10H17zM18,9H19V10H18zM2,10H3V11H2zM4,10H5V11H4zM5,10H6V11H5zM7,10H8V11H7zM8,10H9V11H8zM9,10H10V11H9zM11,10H12V11H11zM12,10H13V11H12zM14,10H15V11H14zM16,10H17V11H16zM17,10H18V11H17zM18,10H19V11H18zM20,10H21V11H20zM23,10H24V11H23zM25,10H26V11H25zM26,10H27V11H26zM3,11H4V12H3zM4,11H5V12H4zM5,11H6V12H5zM6,11H7V12H6zM9,11H10V12H9zM16,11H17V12H16zM21,11H22V12H21zM25,11H26V12H25zM2,12H3V13H2zM3,12H4V13H3zM5,12H6V13H5zM7,12H8V13H7zM8,12H9V13H8zM12,12H13V13H12zM13,12H14V13H13zM14,12H15V13H14zM16,12H17V13H16zM18,12H19V13H18zM19,12H20V13H19zM21,12H22V13H21zM2,13H3V14H2zM3,13H4V14H3zM4,13H5V14H4zM6,13H7V14H6zM9,13H10V14H9zM11,13H12V14H11zM13,13H14V14H13zM15,13H16V14H15zM17,13H18V14H17zM18,13H19V14H18zM19,13H20V14H19zM23,13H24V14H23zM24,13H25V14H24zM2,14H3V15H2zM6,14H7V15H6zM8,14H9V15H8zM10,14H11V15H10zM11,14H12V15H11zM13,14H14V15H13zM15,14H16V15H15zM16,14H17V15H16zM19,14H20V15H19zM20,14H21V15H20zM21,14H22V15H21zM22,14H23V15H22zM24,14H25V15H24zM25,14H26V15H25zM26,14H27V15H26zM4,15H5V16H4zM6,15H7V16H6zM10,15H11V16H10zM11,15H12V16H11zM12,15H13V16H12zM13,15H14V16H13zM15,15H16V16H15zM16,15H17V16H16zM17,15H18V16H17zM18,15H19V16H18zM20,15H21V16H20zM21,15H22V16H21zM22,15H23V16H22zM26,15H27V16H26zM3,16H4V17H3zM5,16H6V17H5zM7,16H8V17H7zM8,16H9V17H8zM9,16H10V17H9zM10,16H11V17H10zM11,16H12V17H11zM12,16H13V17H12zM14,16H15V17H14zM15,16H16V17H15zM16,16H17V17H16zM22,16H23V17H22zM24,16H25V17H24zM25,16H26V17H25zM2,17H3V18H2zM4,17H5V18H4zM5,17H6V18H5zM6,17H7V18H6zM7,17H8V18H7zM12,17H13V18H12zM14,17H15V18H14zM17,17H18V18H17zM18,17H19V18H18zM19,17H20V18H19zM20,17H21V18H20zM21,17H22V18H21zM22,17H23V18H22zM26,17H27V18H26zM6,18H7V19H6zM8,18H9V19H8zM9,18H10V19H9zM13,18H14V19H13zM15,18H16V19H15zM18,18H19V19H18zM19,18H20V19H19zM20,18H21V19H20zM21,18H22V19H21zM22,18H23V19H22zM23,18H24V19H23zM24,18H25V19H24zM25,18H26V19H25zM26,18H27V19H26zM10,19H11V20H10zM14,19H15V20H14zM15,19H16V20H15zM17,19H18V20H17zM18,19H19V20H18zM22,19H23V20H22zM24,19H25V20H24zM26,19H27V20H26zM2,20H3V21H2zM3,20H4V21H3zM4,20H5V21H4zM5,20H6V21H5zM6,20H7V21H6zM7,20H8V21H7zM8,20H9V21H8zM10,20H11V21H10zM12,20H13V21H12zM13,20H14V21H13zM14,20H15V21H14zM16,20H17V21H16zM18,20H19V21H18zM20,20H21V21H20zM22,20H23V21H22zM24,20H25V21H24zM25,20H26V21H25zM26,20H27V21H26zM2,21H3V22H2zM8,21H9V22H8zM10,21H11V22H10zM12,21H13V22H12zM14,21H15V22H14zM17,21H18V22H17zM18,21H19V22H18zM22,21H23V22H22zM25,21H26V22H25zM2,22H3V23H2zM4,22H5V23H4zM5,22H6V23H5zM6,22H7V23H6zM8,22H9V23H8zM11,22H12V23H11zM12,22H13V23H12zM13,22H14V23H13zM16,22H17V23H16zM18,22H19V23H18zM19,22H20V23H19zM20,22H21V23H20zM21,22H22V23H21zM22,22H23V23H22zM23,22H24V23H23zM26,22H27V23H26zM2,23H3V24H2zM4,23H5V24H4zM5,23H6V24H5zM6,23H7V24H6zM8,23H9V24H8zM10,23H11V24H10zM11,23H12V24H11zM14,23H15V24H14zM15,23H16V24H15zM16,23H17V24H16zM17,23H18V24H17zM18,23H19V24H18zM19,23H20V24H19zM20,23H21V24H20zM22,23H23V24H22zM23,23H24V24H23zM24,23H25V24H24zM25,23H26V24H25zM26,23H27V24H26zM2,24H3V25H2zM4,24H5V25H4zM5,24H6V25H5zM6,24H7V25H6zM8,24H9V25H8zM10,24H11V25H10zM12,24H13V25H12zM13,24H14V25H13zM14,24H15V25H14zM16,24H17V25H16zM17,24H18V25H17zM18,24H19V25H18zM20,24H21V25H20zM22,24H23V25H22zM24,24H25V25H24zM25,24H26V25H25zM2,25H3V26H2zM8,25H9V26H8zM11,25H12V26H11zM12,25H13V26H12zM13,25H14V26H13zM14,25H15V26H14zM15,25H16V26H15zM16,25H17V26H16zM19,25H20V26H19zM22,25H23V26H22zM24,25H25V26H24zM2,26H3V27H2zM3,26H4V27H3zM4,26H5V27H4zM5,26H6V27H5zM6,26H7V27H6zM7,26H8V27H7zM8,26H9V27H8zM10,26H11V27H10zM13,26H14V27H13zM14,26H15V27H14zM15,26H16V27H15zM17,26H18V27H17zM20,26H21V27H20zM21,26H22V27H21zM22,26H23V27H22zM23,26H24V27H23zM24,26H25V27H24zM25,26H26V27H25zM26,26H27V27H26z" id="qr-path" fill="#000000" fill-opacity="1" fill-rule="nonzero" stroke="none"/></svg>